<svg width="1280" height="760" viewBox="0 0 1280 760" fill="none" xmlns="http://www.w3.org/2000/svg">
  <defs>
    <linearGradient id="bg2" x1="74" y1="38" x2="1196" y2="716" gradientUnits="userSpaceOnUse">
      <stop stop-color="#FFF8F3"/>
      <stop offset="1" stop-color="#F4F7FB"/>
    </linearGradient>
    <linearGradient id="panel" x1="190" y1="166" x2="1110" y2="650" gradientUnits="userSpaceOnUse">
      <stop stop-color="#FFFDF8"/>
      <stop offset="1" stop-color="#FFFFFF"/>
    </linearGradient>
    <filter id="shadow2" x="0" y="0" width="1280" height="760" filterUnits="userSpaceOnUse" color-interpolation-filters="sRGB">
      <feDropShadow dx="0" dy="16" stdDeviation="22" flood-color="#0F172A" flood-opacity="0.14"/>
    </filter>
  </defs>

  <rect width="1280" height="760" rx="32" fill="url(#bg2)"/>
  <circle cx="1116" cy="126" r="68" fill="#FDE1D8"/>
  <circle cx="132" cy="640" r="94" fill="#DDECF8"/>

  <g filter="url(#shadow2)">
    <rect x="112" y="72" width="1056" height="616" rx="28" fill="white"/>
  </g>

  <rect x="112" y="72" width="1056" height="58" rx="28" fill="#EEF3F7"/>
  <rect x="112" y="102" width="1056" height="28" fill="#EEF3F7"/>
  <circle cx="156" cy="101" r="8" fill="#F87171"/>
  <circle cx="182" cy="101" r="8" fill="#FBBF24"/>
  <circle cx="208" cy="101" r="8" fill="#34D399"/>
  <text x="240" y="107" fill="#425466" font-family="Avenir Next, Segoe UI, sans-serif" font-size="18" font-weight="600">automation-report.html</text>

  <text x="170" y="174" fill="#18324A" font-family="Avenir Next, Segoe UI, sans-serif" font-size="30" font-weight="700">Failure Details and Embedded Screenshots</text>
  <text x="170" y="208" fill="#5B7083" font-family="Avenir Next, Segoe UI, sans-serif" font-size="16">Useful for UI runs on Selenium or Playwright when you need the failing state inline.</text>

  <rect x="170" y="236" width="152" height="42" rx="21" fill="#FDEDEC"/>
  <rect x="336" y="236" width="122" height="42" rx="21" fill="#ECF5FF"/>
  <text x="204" y="262" fill="#C0392B" font-family="Avenir Next, Segoe UI, sans-serif" font-size="16" font-weight="700">2 failures</text>
  <text x="362" y="262" fill="#2471A3" font-family="Avenir Next, Segoe UI, sans-serif" font-size="16" font-weight="700">1 attached image</text>

  <rect x="170" y="306" width="940" height="320" rx="24" fill="url(#panel)" stroke="#E5EDF5"/>

  <rect x="198" y="336" width="366" height="262" rx="18" fill="#173B59"/>
  <rect x="224" y="362" width="314" height="188" rx="14" fill="#EDF4F9"/>
  <rect x="224" y="362" width="314" height="38" rx="14" fill="#CFE0EE"/>
  <rect x="224" y="388" width="314" height="12" fill="#CFE0EE"/>
  <rect x="244" y="426" width="118" height="16" rx="8" fill="#C0392B"/>
  <rect x="244" y="458" width="184" height="14" rx="7" fill="#2471A3"/>
  <rect x="244" y="486" width="138" height="14" rx="7" fill="#48C9B0"/>
  <rect x="244" y="514" width="212" height="14" rx="7" fill="#F5B041"/>
  <text x="224" y="580" fill="#D8E8F5" font-family="Avenir Next, Segoe UI, sans-serif" font-size="16">Failure Screenshot (driver)</text>

  <text x="602" y="356" fill="#18324A" font-family="Avenir Next, Segoe UI, sans-serif" font-size="22" font-weight="700">tests/test_checkout.py::test_checkout</text>
  <text x="602" y="388" fill="#C0392B" font-family="Avenir Next, Segoe UI, sans-serif" font-size="16" font-weight="700">AssertionError: expected success banner</text>
  <rect x="602" y="414" width="476" height="154" rx="16" fill="#0F172A"/>
  <text x="626" y="448" fill="#F8FAFC" font-family="SFMono-Regular, Menlo, monospace" font-size="15">page.goto("/checkout")</text>
  <text x="626" y="478" fill="#F8FAFC" font-family="SFMono-Regular, Menlo, monospace" font-size="15">assert page.get_by_text("Success").is_visible()</text>
  <text x="626" y="508" fill="#FCA5A5" font-family="SFMono-Regular, Menlo, monospace" font-size="15">E  AssertionError: locator resolved to hidden element</text>
  <text x="626" y="538" fill="#93C5FD" font-family="SFMono-Regular, Menlo, monospace" font-size="15">E  screenshot attached to report for quick debugging</text>

  <rect x="602" y="586" width="186" height="18" rx="9" fill="#E2E8F0"/>
  <rect x="602" y="586" width="132" height="18" rx="9" fill="#C0392B"/>
  <text x="808" y="600" fill="#5B7083" font-family="Avenir Next, Segoe UI, sans-serif" font-size="14">failure card</text>

  <rect x="170" y="646" width="940" height="12" rx="6" fill="#E5EDF5"/>
  <rect x="170" y="646" width="276" height="12" rx="6" fill="#2471A3"/>
  <text x="170" y="694" fill="#5B7083" font-family="Avenir Next, Segoe UI, sans-serif" font-size="14">Details tab with screenshot attachments, traceback context, and room for a full result table below.</text>
</svg>
