<svg width="1280" height="760" viewBox="0 0 1280 760" fill="none" xmlns="http://www.w3.org/2000/svg">
  <defs>
    <linearGradient id="bg" x1="90" y1="40" x2="1180" y2="720" gradientUnits="userSpaceOnUse">
      <stop stop-color="#F7FAFC"/>
      <stop offset="1" stop-color="#E8F0F7"/>
    </linearGradient>
    <linearGradient id="hero" x1="160" y1="126" x2="1124" y2="664" gradientUnits="userSpaceOnUse">
      <stop stop-color="#12324A"/>
      <stop offset="1" stop-color="#1F5C8A"/>
    </linearGradient>
    <filter id="shadow" x="0" y="0" width="1280" height="760" filterUnits="userSpaceOnUse" color-interpolation-filters="sRGB">
      <feDropShadow dx="0" dy="16" stdDeviation="20" flood-color="#0F172A" flood-opacity="0.14"/>
    </filter>
    <filter id="soft" x="0" y="0" width="1280" height="760" filterUnits="userSpaceOnUse" color-interpolation-filters="sRGB">
      <feDropShadow dx="0" dy="8" stdDeviation="10" flood-color="#0F172A" flood-opacity="0.10"/>
    </filter>
  </defs>

  <rect width="1280" height="760" rx="32" fill="url(#bg)"/>
  <circle cx="158" cy="118" r="72" fill="#D5E6F6"/>
  <circle cx="1128" cy="650" r="94" fill="#DCEBDA"/>

  <g filter="url(#shadow)">
    <rect x="112" y="72" width="1056" height="616" rx="28" fill="white"/>
  </g>

  <rect x="112" y="72" width="1056" height="58" rx="28" fill="#EEF3F7"/>
  <rect x="112" y="102" width="1056" height="28" fill="#EEF3F7"/>
  <circle cx="156" cy="101" r="8" fill="#F87171"/>
  <circle cx="182" cy="101" r="8" fill="#FBBF24"/>
  <circle cx="208" cy="101" r="8" fill="#34D399"/>
  <text x="240" y="107" fill="#425466" font-family="Avenir Next, Segoe UI, sans-serif" font-size="18" font-weight="600">automation-report.html</text>

  <g filter="url(#soft)">
    <rect x="156" y="156" width="968" height="488" rx="24" fill="url(#hero)"/>
  </g>

  <text x="198" y="214" fill="white" font-family="Avenir Next, Segoe UI, sans-serif" font-size="32" font-weight="700">Pytest Automation Report</text>
  <text x="198" y="246" fill="#CFE5F6" font-family="Avenir Next, Segoe UI, sans-serif" font-size="16">Visual run summary with charts, timings, modules, and failures</text>

  <rect x="196" y="282" width="194" height="118" rx="18" fill="#F8FBFD"/>
  <rect x="406" y="282" width="194" height="118" rx="18" fill="#F8FBFD"/>
  <rect x="616" y="282" width="194" height="118" rx="18" fill="#F8FBFD"/>
  <rect x="826" y="282" width="194" height="118" rx="18" fill="#F8FBFD"/>

  <text x="220" y="316" fill="#5B7083" font-family="Avenir Next, Segoe UI, sans-serif" font-size="14" font-weight="600">TOTAL TESTS</text>
  <text x="220" y="368" fill="#16324A" font-family="Avenir Next, Segoe UI, sans-serif" font-size="40" font-weight="700">128</text>
  <text x="430" y="316" fill="#5B7083" font-family="Avenir Next, Segoe UI, sans-serif" font-size="14" font-weight="600">PASS RATE</text>
  <text x="430" y="368" fill="#16324A" font-family="Avenir Next, Segoe UI, sans-serif" font-size="40" font-weight="700">96.1%</text>
  <text x="640" y="316" fill="#5B7083" font-family="Avenir Next, Segoe UI, sans-serif" font-size="14" font-weight="600">TOTAL RUNTIME</text>
  <text x="640" y="368" fill="#16324A" font-family="Avenir Next, Segoe UI, sans-serif" font-size="40" font-weight="700">8m 42s</text>
  <text x="850" y="316" fill="#5B7083" font-family="Avenir Next, Segoe UI, sans-serif" font-size="14" font-weight="600">AVG RUNTIME</text>
  <text x="850" y="368" fill="#16324A" font-family="Avenir Next, Segoe UI, sans-serif" font-size="40" font-weight="700">4.1s</text>

  <rect x="196" y="430" width="318" height="174" rx="18" fill="#F8FBFD"/>
  <rect x="534" y="430" width="236" height="174" rx="18" fill="#F8FBFD"/>
  <rect x="790" y="430" width="230" height="174" rx="18" fill="#F8FBFD"/>

  <text x="220" y="464" fill="#16324A" font-family="Avenir Next, Segoe UI, sans-serif" font-size="18" font-weight="700">Outcome Distribution</text>
  <circle cx="316" cy="522" r="52" fill="none" stroke="#E2E8F0" stroke-width="24"/>
  <path d="M316 470 A52 52 0 1 1 271 548" stroke="#1D8348" stroke-width="24" stroke-linecap="round" fill="none"/>
  <path d="M271 548 A52 52 0 0 1 254 506" stroke="#C0392B" stroke-width="24" stroke-linecap="round" fill="none"/>
  <path d="M254 506 A52 52 0 0 1 279 476" stroke="#B9770E" stroke-width="24" stroke-linecap="round" fill="none"/>
  <text x="386" y="514" fill="#16324A" font-family="Avenir Next, Segoe UI, sans-serif" font-size="16" font-weight="700">123 passed</text>
  <text x="386" y="542" fill="#C0392B" font-family="Avenir Next, Segoe UI, sans-serif" font-size="15">3 failed</text>
  <text x="386" y="570" fill="#B9770E" font-family="Avenir Next, Segoe UI, sans-serif" font-size="15">2 skipped</text>

  <text x="558" y="464" fill="#16324A" font-family="Avenir Next, Segoe UI, sans-serif" font-size="18" font-weight="700">Phase Duration Breakdown</text>
  <rect x="562" y="498" width="38" height="74" rx="12" fill="#5DADE2"/>
  <rect x="612" y="470" width="38" height="102" rx="12" fill="#48C9B0"/>
  <rect x="662" y="520" width="38" height="52" rx="12" fill="#F5B041"/>
  <text x="560" y="594" fill="#5B7083" font-family="Avenir Next, Segoe UI, sans-serif" font-size="14">setup</text>
  <text x="611" y="594" fill="#5B7083" font-family="Avenir Next, Segoe UI, sans-serif" font-size="14">call</text>
  <text x="652" y="594" fill="#5B7083" font-family="Avenir Next, Segoe UI, sans-serif" font-size="14">teardown</text>
  <text x="560" y="626" fill="#16324A" font-family="Avenir Next, Segoe UI, sans-serif" font-size="15">Visualize suite time across phases.</text>

  <text x="814" y="464" fill="#16324A" font-family="Avenir Next, Segoe UI, sans-serif" font-size="18" font-weight="700">Top Slowest Tests</text>
  <rect x="816" y="500" width="164" height="18" rx="9" fill="#DDE7F0"/>
  <rect x="816" y="500" width="138" height="18" rx="9" fill="#2471A3"/>
  <rect x="816" y="532" width="164" height="18" rx="9" fill="#DDE7F0"/>
  <rect x="816" y="532" width="120" height="18" rx="9" fill="#1D8348"/>
  <rect x="816" y="564" width="164" height="18" rx="9" fill="#DDE7F0"/>
  <rect x="816" y="564" width="92" height="18" rx="9" fill="#B9770E"/>
  <text x="816" y="626" fill="#16324A" font-family="Avenir Next, Segoe UI, sans-serif" font-size="15">Pinpoint the tests that dominate runtime.</text>

  <rect x="156" y="662" width="390" height="10" rx="5" fill="#D9E3EC"/>
  <rect x="156" y="662" width="128" height="10" rx="5" fill="#48C9B0"/>
  <text x="562" y="671" fill="#5B7083" font-family="Avenir Next, Segoe UI, sans-serif" font-size="13">Summary tab with KPI cards, outcome donut, phase chart, and slowest-test insights.</text>
</svg>
